curl
version=1
nRows=145
nColumns=3
inDegrees=yes
endheader
time	r_shoulder_elev	r_elbow_flex
4.7800	36.861050	82.011945
4.7900	37.040028	83.584844
4.8000	37.210137	85.145748
4.8100	37.370998	86.694386
4.8200	37.522297	88.230376
4.8300	37.663781	89.753224
4.8400	37.795263	91.262320
4.8500	37.916619	92.756937
4.8600	38.027789	94.236239
4.8700	38.128774	95.699286
4.8800	38.219636	97.145047
4.8900	38.300494	98.572413
4.9000	38.371519	99.980210
4.9100	38.432932	101.367220
4.9200	38.485000	102.732198
4.9300	38.528028	104.073889
4.9400	38.562360	105.391049
4.9500	38.588367	106.682461
4.9600	38.606448	107.946950
4.9700	38.617026	109.183397
4.9800	38.620537	110.390753
4.9900	38.617435	111.568046
5.0000	38.608180	112.714383
5.0100	38.593241	113.828961
5.0200	38.573090	114.911060
5.0300	38.548200	115.960046
5.0400	38.519041	116.975361
5.0500	38.486085	117.956523
5.0600	38.449795	118.903109
5.0700	38.410631	119.814753
5.0800	38.369048	120.691131
5.0900	38.325494	121.531948
5.1000	38.280410	122.336929
5.1100	38.234229	123.105808
5.1200	38.187380	123.838308
5.1300	38.140283	124.534137
5.1400	38.093352	125.192972
5.1500	38.046993	125.814449
5.1600	38.001606	126.398149
5.1700	37.957582	126.943596
5.1800	37.915304	127.450242
5.1900	37.875148	127.917464
5.2000	37.837478	128.000000
5.2100	37.802647	128.000000
5.2200	37.770997	128.000000
5.2300	37.742854	128.000000
5.2400	37.718530	128.000000
5.2500	37.698316	128.000000
5.2600	37.682486	128.000000
5.2700	37.671288	128.000000
5.2800	37.664947	128.000000
5.2900	37.663657	128.000000
5.3000	37.667585	128.000000
5.3100	37.676864	128.000000
5.3200	37.691590	128.000000
5.3300	37.711824	128.000000
5.3400	37.737587	128.000000
5.3500	37.768859	128.000000
5.3600	37.805579	128.000000
5.3700	37.847643	128.000000
5.3800	37.894904	127.979858
5.3900	37.947171	127.437610
5.4000	38.004212	126.833588
5.4100	38.065752	126.167228
5.4200	38.131476	125.438114
5.4300	38.201027	124.645985
5.4400	38.274014	123.790748
5.4500	38.350008	122.872486
5.4600	38.428549	121.891476
5.4700	38.509144	120.848193
5.4800	38.591274	119.743324
5.4900	38.674395	118.577778
5.5000	38.757941	117.352692
5.5100	38.841327	116.069442
5.5200	38.923954	114.729647
5.5300	39.005211	113.335173
5.5400	39.084479	111.888137
5.5500	39.161136	110.390901
5.5600	39.234558	108.846076
5.5700	39.304123	107.256508
5.5800	39.369217	105.625274
5.5900	39.429233	103.955661
5.6000	39.483579	102.251156
5.6100	39.531675	100.515422
5.6200	39.572963	98.752274
5.6300	39.606905	96.965652
5.6400	39.632986	95.159592
5.6500	39.650719	93.338197
5.6600	39.659645	91.505599
5.6700	39.659336	89.665933
5.6800	39.649398	87.823296
5.6900	39.629472	85.981720
5.7000	39.599235	84.145135
5.7100	39.558404	82.317341
5.7200	39.506736	80.501977
5.7300	39.444031	78.702496
5.7400	39.370134	76.922135
5.7500	39.284934	75.163892
5.7600	39.188371	73.430509
5.7700	39.080434	71.724450
5.7800	38.961162	70.047885
5.7900	38.830650	68.402680
5.8000	38.689045	66.790385
5.8100	38.536551	65.212232
5.8200	38.373426	63.669127
5.8300	38.199985	62.161656
5.8400	38.016597	60.690083
5.8500	37.823687	59.254366
5.8600	37.621729	57.854160
5.8700	37.411247	56.488837
5.8800	37.192813	55.157501
5.8900	36.967040	53.859010
5.9000	36.734579	52.591997
5.9100	36.496115	51.354902
5.9200	36.252360	50.145996
5.9300	36.004050	48.963411
5.9400	35.751937	47.805176
5.9500	35.496784	46.669245
5.9600	35.239359	45.553537
5.9700	34.980429	44.455963
5.9800	34.720754	43.374467
5.9900	34.461082	42.307054
6.0000	34.202141	41.251826
6.0100	33.944638	40.207011
6.0200	33.689250	39.170993
6.0300	33.436624	38.142334
6.0400	33.187370	37.119801
6.0500	32.942064	36.102384
6.0600	32.701237	35.089310
6.0700	32.465383	34.080055
6.0800	32.234952	33.074355
6.0900	32.010354	32.072203
6.1000	31.791956	31.073858
6.1100	31.580085	30.079834
6.1200	31.375028	29.090896
6.1300	31.177035	28.108054
6.1400	30.986318	27.132548
6.1500	30.803052	26.165837
6.1600	30.627381	25.209580
6.1700	30.459415	24.265625
6.1800	30.299235	23.335988
6.1900	30.146892	22.422834
6.2000	30.002413	21.528459
6.2100	29.865799	20.655271
6.2200	29.737029	19.805765
